#!OML:ASF F:\VICON\USERDATA\INSTALL\rory3\rory3.ASF
:FULLY-SPECIFIED
:DEGREES
360
root 5.12062 17.4521 1.12437 14.5864 4.74762 1.26851
lowerback -17.0002 4.15879 9.93268
upperback -11.2341 4.18543 -0.655297
thorax -1.94341 1.59042 -5.63248
lowerneck -4.61918 10.7764 3.76828
upperneck 15.1968 13.8294 3.67139
head 5.35089 7.24624 1.37153
rclavicle -2.10712e-014 -2.22639e-014
rhumerus 70.9232 56.8774 -15.8443
rradius 84.1368
rwrist -8.72182
rhand -9.21099 -32.4702
rfingers 7.12502
rthumb 16.7433 -61.7682
lclavicle -2.10712e-014 -2.22639e-014
lhumerus 49.5227 -16.4234 11.3304
lradius 56.9506
lwrist 50.3717
lhand -13.795 -16.0971
lfingers 7.12502
lthumb 12.3268 13.5195
rfemur 0.454894 12.3041 -5.29697
rtibia -1.27222e-014
rfoot -15.3635 -25.6813
rtoes 30.9778
lfemur -15.288 -0.802388 -28.6989
ltibia 18.8489
lfoot -15.9244 5.66195
ltoes 6.82133
361
root 5.12688 17.4533 1.12971 14.5554 4.7251 1.19314
lowerback -17.0709 4.15139 10.0315
upperback -11.2002 4.15117 -0.601564
thorax -1.87585 1.57391 -5.63151
lowerneck -4.65602 10.8106 3.66978
upperneck 15.1362 13.8713 3.75586
head 5.32447 7.26639 1.41234
rclavicle 1.8487e-014 1.35174e-014
rhumerus 71.0179 56.3495 -15.762
rradius 84.3178
rwrist -9.11826
rhand -9.02124 -31.6122
rfingers 7.12502
rthumb 16.926 -60.8947
lclavicle 1.8487e-014 1.35174e-014
lhumerus 49.3391 -16.0426 10.9848
lradius 56.9753
lwrist 50.588
lhand -13.8327 -16.0572
lfingers 7.12502
lthumb 12.2904 13.5616
rfemur 0.433927 12.3504 -5.26979
rtibia -1.90833e-014
rfoot -15.4129 -25.655
rtoes 30.9985
lfemur -15.2678 -0.811922 -28.6422
ltibia 18.8795
lfoot -15.9394 5.74597
ltoes 6.64976
362
root 5.1312 17.4571 1.13375 14.5184 4.72107 1.08117
lowerback -17.0898 4.15709 10.1512
upperback -11.1946 4.13935 -0.558781
thorax -1.86114 1.56397 -5.6536
lowerneck -5.04456 10.6769 3.88876
upperneck 15.8302 13.6926 3.45235
head 5.64583 7.1771 1.33494
rclavicle -1.53064e-014 -7.07673e-014
rhumerus 70.9905 55.8141 -15.7797
rradius 84.3915
rwrist -9.1923
rhand -9.45323 -28.2521
rfingers 7.12502
rthumb 16.5101 -57.5697
lclavicle -1.53064e-014 -7.07673e-014
lhumerus 49.1999 -15.7647 10.6602
lradius 56.9529
lwrist 50.4499
lhand -14.3418 -15.9711
lfingers 7.12502
lthumb 11.7995 13.6765
rfemur 0.428761 12.3907 -5.17922
rtibia 3.18055e-015
rfoot -15.5814 -25.5895
rtoes 31.5481
lfemur -15.2665 -0.85688 -28.527
ltibia 18.9096
lfoot -15.9272 5.829
ltoes 6.72182
363
root 5.13643 17.458 1.13691 14.4756 4.75721 1.02823
lowerback -17.0566 4.17606 10.2728
upperback -11.2396 4.15489 -0.575185
thorax -1.92074 1.56056 -5.73981
lowerneck -4.84148 10.7346 3.94246
upperneck 15.6578 13.7807 3.42717
head 5.56352 7.22016 1.30582
rclavicle 2.22639e-014 2.8625e-014
rhumerus 70.9922 55.3819 -15.6273
rradius 84.4656
rwrist -8.79553
rhand -11.1653 -23.3238
rfingers 7.12502
rthumb 14.8612 -52.7708
lclavicle 2.22639e-014 2.8625e-014
lhumerus 49.2209 -15.119 10.8935
lradius 56.8841
lwrist 51.4584
lhand -10.3951 -12.7006
lfingers 7.12502
lthumb 15.6031 16.6901
rfemur 0.505141 12.3862 -5.12438
rtibia 3.18055e-014
rfoot -15.9766 -25.3053
rtoes 32.689
lfemur -15.2081 -0.945505 -28.4712
ltibia 18.9101
lfoot -15.9211 5.86936
ltoes 6.88038
364
root 5.14046 17.4581 1.13509 14.509 4.78632 0.983409
lowerback -17.0018 4.18606 10.3841
upperback -11.3511 4.16709 -0.584311
thorax -2.06697 1.54945 -5.81647
lowerneck -4.50345 10.8071 3.78728
upperneck 15.2862 13.8775 3.66739
head 5.36133 7.27244 1.36721
rclavicle 3.45885e-014 1.27222e-014
rhumerus 71.1516 55.0367 -15.3181
rradius 84.9867
rwrist -8.95444
rhand -12.3804 -24.301
rfingers 7.12502
rthumb 13.6904 -53.8307
lclavicle 3.45885e-014 1.27222e-014
lhumerus 49.3725 -14.9307 10.7169
lradius 56.4896
lwrist 51.3124
lhand -10.7651 -13.7553
lfingers 7.12502
lthumb 15.2468 15.6628
rfemur 0.475527 12.3542 -5.10343
rtibia 9.54166e-015
rfoot -15.3375 -25.6256
rtoes 31.6657
lfemur -15.2313 -1.01807 -28.4252
ltibia 18.8778
lfoot -15.9161 5.88385
ltoes 6.68611
365
root 5.14514 17.4564 1.13593 14.5585 4.77587 1.11526
lowerback -16.9515 4.15986 10.2912
upperback -11.4683 4.15888 -0.618737
thorax -2.22514 1.53706 -5.80941
lowerneck -4.17063 10.8735 3.70007
upperneck 15.02 13.9726 3.82082
head 5.20474 7.32224 1.39753
rclavicle 2.36554e-014 -1.74931e-014
rhumerus 71.094 54.6609 -15.3617
rradius 85.2248
rwrist -9.12656
rhand -11.9815 -25.4027
rfingers 7.12502
rthumb 14.0748 -54.9061
lclavicle 2.36554e-014 -1.74931e-014
lhumerus 49.3684 -14.8308 10.4028
lradius 56.2366
lwrist 51.0566
lhand -12.8608 -15.4898
lfingers 7.12502
lthumb 13.2274 14.0705
rfemur -0.628261 12.3303 -5.36126
rtibia 1.95264
rfoot -14.1453 -25.5401
rtoes 28.7112
lfemur -15.2397 -1.05529 -28.5844
ltibia 18.8245
lfoot -15.9297 5.8845
ltoes 6.70431
366
root 5.1499 17.4549 1.14052 14.5675 4.77023 1.26894
lowerback -16.9061 4.12837 10.1508
upperback -11.5494 4.14686 -0.658904
thorax -2.34222 1.52864 -5.78112
lowerneck -3.78615 10.9692 3.73682
upperneck 14.731 14.1149 3.86362
head 5.0503 7.39361 1.37627
rclavicle 7.35503e-015 9.54166e-015
rhumerus 70.8748 54.2221 -15.5732
rradius 85.1811
rwrist -9.16863
rhand -10.0201 -27.339
rfingers 7.12502
rthumb 15.9643 -56.7011
lclavicle 7.35503e-015 9.54166e-015
lhumerus 49.3098 -14.5833 10.1415
lradius 56.1338
lwrist 51.1376
lhand -14.092 -16.0743
lfingers 7.12502
lthumb 12.0404 13.5594
rfemur -1.43084 12.3098 -5.61436
rtibia 3.46349
rfoot -13.8241 -25.1084
rtoes 27.6171
lfemur -15.1598 -1.12706 -28.7586
ltibia 18.7383
lfoot -15.9342 5.89789
ltoes 7.20415
367
root 5.15212 17.4555 1.13907 14.5938 4.74854 1.27666
lowerback -16.8452 4.14858 10.1409
upperback -11.5935 4.1848 -0.679485
thorax -2.41512 1.54255 -5.79575
lowerneck -3.8192 11.0201 3.68969
upperneck 14.766 14.1611 4.04779
head 5.04942 7.42622 1.44274
rclavicle -6.95746e-015 -2.38542e-015
rhumerus 70.664 53.6354 -15.6906
rradius 85.1724
rwrist -9.3809
rhand -10.3776 -26.8874
rfingers 7.12502
rthumb 15.62 -56.2768
lclavicle -6.95746e-015 -2.38542e-015
lhumerus 49.3472 -14.227 9.92394
lradius 56.036
lwrist 51.3345
lhand -14.4465 -16.3028
lfingers 7.12502
lthumb 11.6986 13.3505
rfemur -2.0277 12.3205 -5.7061
rtibia 4.40423
rfoot -13.9341 -24.77
rtoes 27.626
lfemur -15.1433 -1.17447 -28.7676
ltibia 18.6472
lfoot -15.8658 5.92944
ltoes 7.31613
